<?xml version="1.0" encoding="UTF-8" standalone="no"?>
<!-- Created with Inkscape (http://www.inkscape.org/) -->

<svg
   xmlns:dc="http://purl.org/dc/elements/1.1/"
   xmlns:cc="http://creativecommons.org/ns#"
   xmlns:rdf="http://www.w3.org/1999/02/22-rdf-syntax-ns#"
   xmlns:svg="http://www.w3.org/2000/svg"
   xmlns="http://www.w3.org/2000/svg"
   xmlns:sodipodi="http://sodipodi.sourceforge.net/DTD/sodipodi-0.dtd"
   xmlns:inkscape="http://www.inkscape.org/namespaces/inkscape"
   width="303.42264"
   height="438.97632"
   id="svg2"
   version="1.1"
   inkscape:version="0.47 r22583"
   sodipodi:docname="daisy.svg">
  <defs
     id="defs4">
    <inkscape:perspective
       sodipodi:type="inkscape:persp3d"
       inkscape:vp_x="0 : 526.18109 : 1"
       inkscape:vp_y="0 : 1000 : 0"
       inkscape:vp_z="744.09448 : 526.18109 : 1"
       inkscape:persp3d-origin="372.04724 : 350.78739 : 1"
       id="perspective10" />
    <inkscape:perspective
       id="perspective2824"
       inkscape:persp3d-origin="0.5 : 0.33333333 : 1"
       inkscape:vp_z="1 : 0.5 : 1"
       inkscape:vp_y="0 : 1000 : 0"
       inkscape:vp_x="0 : 0.5 : 1"
       sodipodi:type="inkscape:persp3d" />
    <inkscape:perspective
       id="perspective3616"
       inkscape:persp3d-origin="0.5 : 0.33333333 : 1"
       inkscape:vp_z="1 : 0.5 : 1"
       inkscape:vp_y="0 : 1000 : 0"
       inkscape:vp_x="0 : 0.5 : 1"
       sodipodi:type="inkscape:persp3d" />
    <inkscape:perspective
       id="perspective3646"
       inkscape:persp3d-origin="0.5 : 0.33333333 : 1"
       inkscape:vp_z="1 : 0.5 : 1"
       inkscape:vp_y="0 : 1000 : 0"
       inkscape:vp_x="0 : 0.5 : 1"
       sodipodi:type="inkscape:persp3d" />
    <inkscape:perspective
       id="perspective3673"
       inkscape:persp3d-origin="0.5 : 0.33333333 : 1"
       inkscape:vp_z="1 : 0.5 : 1"
       inkscape:vp_y="0 : 1000 : 0"
       inkscape:vp_x="0 : 0.5 : 1"
       sodipodi:type="inkscape:persp3d" />
    <inkscape:perspective
       id="perspective3673-0"
       inkscape:persp3d-origin="0.5 : 0.33333333 : 1"
       inkscape:vp_z="1 : 0.5 : 1"
       inkscape:vp_y="0 : 1000 : 0"
       inkscape:vp_x="0 : 0.5 : 1"
       sodipodi:type="inkscape:persp3d" />
    <inkscape:perspective
       id="perspective3673-4"
       inkscape:persp3d-origin="0.5 : 0.33333333 : 1"
       inkscape:vp_z="1 : 0.5 : 1"
       inkscape:vp_y="0 : 1000 : 0"
       inkscape:vp_x="0 : 0.5 : 1"
       sodipodi:type="inkscape:persp3d" />
    <inkscape:perspective
       id="perspective3713"
       inkscape:persp3d-origin="0.5 : 0.33333333 : 1"
       inkscape:vp_z="1 : 0.5 : 1"
       inkscape:vp_y="0 : 1000 : 0"
       inkscape:vp_x="0 : 0.5 : 1"
       sodipodi:type="inkscape:persp3d" />
    <inkscape:perspective
       id="perspective3713-2"
       inkscape:persp3d-origin="0.5 : 0.33333333 : 1"
       inkscape:vp_z="1 : 0.5 : 1"
       inkscape:vp_y="0 : 1000 : 0"
       inkscape:vp_x="0 : 0.5 : 1"
       sodipodi:type="inkscape:persp3d" />
    <inkscape:perspective
       id="perspective3713-5"
       inkscape:persp3d-origin="0.5 : 0.33333333 : 1"
       inkscape:vp_z="1 : 0.5 : 1"
       inkscape:vp_y="0 : 1000 : 0"
       inkscape:vp_x="0 : 0.5 : 1"
       sodipodi:type="inkscape:persp3d" />
    <inkscape:perspective
       id="perspective3713-1"
       inkscape:persp3d-origin="0.5 : 0.33333333 : 1"
       inkscape:vp_z="1 : 0.5 : 1"
       inkscape:vp_y="0 : 1000 : 0"
       inkscape:vp_x="0 : 0.5 : 1"
       sodipodi:type="inkscape:persp3d" />
    <inkscape:perspective
       id="perspective3713-11"
       inkscape:persp3d-origin="0.5 : 0.33333333 : 1"
       inkscape:vp_z="1 : 0.5 : 1"
       inkscape:vp_y="0 : 1000 : 0"
       inkscape:vp_x="0 : 0.5 : 1"
       sodipodi:type="inkscape:persp3d" />
    <inkscape:perspective
       id="perspective3713-7"
       inkscape:persp3d-origin="0.5 : 0.33333333 : 1"
       inkscape:vp_z="1 : 0.5 : 1"
       inkscape:vp_y="0 : 1000 : 0"
       inkscape:vp_x="0 : 0.5 : 1"
       sodipodi:type="inkscape:persp3d" />
    <inkscape:perspective
       id="perspective3780"
       inkscape:persp3d-origin="0.5 : 0.33333333 : 1"
       inkscape:vp_z="1 : 0.5 : 1"
       inkscape:vp_y="0 : 1000 : 0"
       inkscape:vp_x="0 : 0.5 : 1"
       sodipodi:type="inkscape:persp3d" />
    <inkscape:perspective
       id="perspective3802"
       inkscape:persp3d-origin="0.5 : 0.33333333 : 1"
       inkscape:vp_z="1 : 0.5 : 1"
       inkscape:vp_y="0 : 1000 : 0"
       inkscape:vp_x="0 : 0.5 : 1"
       sodipodi:type="inkscape:persp3d" />
    <inkscape:perspective
       id="perspective3824"
       inkscape:persp3d-origin="0.5 : 0.33333333 : 1"
       inkscape:vp_z="1 : 0.5 : 1"
       inkscape:vp_y="0 : 1000 : 0"
       inkscape:vp_x="0 : 0.5 : 1"
       sodipodi:type="inkscape:persp3d" />
    <inkscape:perspective
       id="perspective3824-3"
       inkscape:persp3d-origin="0.5 : 0.33333333 : 1"
       inkscape:vp_z="1 : 0.5 : 1"
       inkscape:vp_y="0 : 1000 : 0"
       inkscape:vp_x="0 : 0.5 : 1"
       sodipodi:type="inkscape:persp3d" />
    <inkscape:perspective
       id="perspective3855"
       inkscape:persp3d-origin="0.5 : 0.33333333 : 1"
       inkscape:vp_z="1 : 0.5 : 1"
       inkscape:vp_y="0 : 1000 : 0"
       inkscape:vp_x="0 : 0.5 : 1"
       sodipodi:type="inkscape:persp3d" />
    <inkscape:perspective
       id="perspective3877"
       inkscape:persp3d-origin="0.5 : 0.33333333 : 1"
       inkscape:vp_z="1 : 0.5 : 1"
       inkscape:vp_y="0 : 1000 : 0"
       inkscape:vp_x="0 : 0.5 : 1"
       sodipodi:type="inkscape:persp3d" />
    <inkscape:perspective
       id="perspective3899"
       inkscape:persp3d-origin="0.5 : 0.33333333 : 1"
       inkscape:vp_z="1 : 0.5 : 1"
       inkscape:vp_y="0 : 1000 : 0"
       inkscape:vp_x="0 : 0.5 : 1"
       sodipodi:type="inkscape:persp3d" />
    <inkscape:perspective
       id="perspective3921"
       inkscape:persp3d-origin="0.5 : 0.33333333 : 1"
       inkscape:vp_z="1 : 0.5 : 1"
       inkscape:vp_y="0 : 1000 : 0"
       inkscape:vp_x="0 : 0.5 : 1"
       sodipodi:type="inkscape:persp3d" />
    <inkscape:perspective
       id="perspective3921-7"
       inkscape:persp3d-origin="0.5 : 0.33333333 : 1"
       inkscape:vp_z="1 : 0.5 : 1"
       inkscape:vp_y="0 : 1000 : 0"
       inkscape:vp_x="0 : 0.5 : 1"
       sodipodi:type="inkscape:persp3d" />
    <inkscape:perspective
       id="perspective3952"
       inkscape:persp3d-origin="0.5 : 0.33333333 : 1"
       inkscape:vp_z="1 : 0.5 : 1"
       inkscape:vp_y="0 : 1000 : 0"
       inkscape:vp_x="0 : 0.5 : 1"
       sodipodi:type="inkscape:persp3d" />
    <inkscape:perspective
       id="perspective3952-8"
       inkscape:persp3d-origin="0.5 : 0.33333333 : 1"
       inkscape:vp_z="1 : 0.5 : 1"
       inkscape:vp_y="0 : 1000 : 0"
       inkscape:vp_x="0 : 0.5 : 1"
       sodipodi:type="inkscape:persp3d" />
    <inkscape:perspective
       id="perspective3952-2"
       inkscape:persp3d-origin="0.5 : 0.33333333 : 1"
       inkscape:vp_z="1 : 0.5 : 1"
       inkscape:vp_y="0 : 1000 : 0"
       inkscape:vp_x="0 : 0.5 : 1"
       sodipodi:type="inkscape:persp3d" />
    <inkscape:perspective
       id="perspective3952-9"
       inkscape:persp3d-origin="0.5 : 0.33333333 : 1"
       inkscape:vp_z="1 : 0.5 : 1"
       inkscape:vp_y="0 : 1000 : 0"
       inkscape:vp_x="0 : 0.5 : 1"
       sodipodi:type="inkscape:persp3d" />
    <inkscape:perspective
       id="perspective3952-4"
       inkscape:persp3d-origin="0.5 : 0.33333333 : 1"
       inkscape:vp_z="1 : 0.5 : 1"
       inkscape:vp_y="0 : 1000 : 0"
       inkscape:vp_x="0 : 0.5 : 1"
       sodipodi:type="inkscape:persp3d" />
    <inkscape:perspective
       id="perspective3952-1"
       inkscape:persp3d-origin="0.5 : 0.33333333 : 1"
       inkscape:vp_z="1 : 0.5 : 1"
       inkscape:vp_y="0 : 1000 : 0"
       inkscape:vp_x="0 : 0.5 : 1"
       sodipodi:type="inkscape:persp3d" />
    <inkscape:perspective
       id="perspective3952-3"
       inkscape:persp3d-origin="0.5 : 0.33333333 : 1"
       inkscape:vp_z="1 : 0.5 : 1"
       inkscape:vp_y="0 : 1000 : 0"
       inkscape:vp_x="0 : 0.5 : 1"
       sodipodi:type="inkscape:persp3d" />
    <inkscape:perspective
       id="perspective3952-11"
       inkscape:persp3d-origin="0.5 : 0.33333333 : 1"
       inkscape:vp_z="1 : 0.5 : 1"
       inkscape:vp_y="0 : 1000 : 0"
       inkscape:vp_x="0 : 0.5 : 1"
       sodipodi:type="inkscape:persp3d" />
    <inkscape:perspective
       id="perspective4069"
       inkscape:persp3d-origin="0.5 : 0.33333333 : 1"
       inkscape:vp_z="1 : 0.5 : 1"
       inkscape:vp_y="0 : 1000 : 0"
       inkscape:vp_x="0 : 0.5 : 1"
       sodipodi:type="inkscape:persp3d" />
    <inkscape:perspective
       id="perspective4105"
       inkscape:persp3d-origin="0.5 : 0.33333333 : 1"
       inkscape:vp_z="1 : 0.5 : 1"
       inkscape:vp_y="0 : 1000 : 0"
       inkscape:vp_x="0 : 0.5 : 1"
       sodipodi:type="inkscape:persp3d" />
    <inkscape:perspective
       id="perspective4127"
       inkscape:persp3d-origin="0.5 : 0.33333333 : 1"
       inkscape:vp_z="1 : 0.5 : 1"
       inkscape:vp_y="0 : 1000 : 0"
       inkscape:vp_x="0 : 0.5 : 1"
       sodipodi:type="inkscape:persp3d" />
    <inkscape:perspective
       id="perspective4149"
       inkscape:persp3d-origin="0.5 : 0.33333333 : 1"
       inkscape:vp_z="1 : 0.5 : 1"
       inkscape:vp_y="0 : 1000 : 0"
       inkscape:vp_x="0 : 0.5 : 1"
       sodipodi:type="inkscape:persp3d" />
    <inkscape:perspective
       id="perspective4149-9"
       inkscape:persp3d-origin="0.5 : 0.33333333 : 1"
       inkscape:vp_z="1 : 0.5 : 1"
       inkscape:vp_y="0 : 1000 : 0"
       inkscape:vp_x="0 : 0.5 : 1"
       sodipodi:type="inkscape:persp3d" />
    <inkscape:perspective
       id="perspective4149-1"
       inkscape:persp3d-origin="0.5 : 0.33333333 : 1"
       inkscape:vp_z="1 : 0.5 : 1"
       inkscape:vp_y="0 : 1000 : 0"
       inkscape:vp_x="0 : 0.5 : 1"
       sodipodi:type="inkscape:persp3d" />
    <inkscape:perspective
       id="perspective4149-8"
       inkscape:persp3d-origin="0.5 : 0.33333333 : 1"
       inkscape:vp_z="1 : 0.5 : 1"
       inkscape:vp_y="0 : 1000 : 0"
       inkscape:vp_x="0 : 0.5 : 1"
       sodipodi:type="inkscape:persp3d" />
  </defs>
  <sodipodi:namedview
     id="base"
     pagecolor="#ffffff"
     bordercolor="#666666"
     borderopacity="1.0"
     inkscape:pageopacity="0.0"
     inkscape:pageshadow="2"
     inkscape:zoom="0.5"
     inkscape:cx="577.39826"
     inkscape:cy="93.828182"
     inkscape:document-units="px"
     inkscape:current-layer="layer1"
     showgrid="false"
     showguides="true"
     inkscape:guide-bbox="true"
     inkscape:window-width="1600"
     inkscape:window-height="838"
     inkscape:window-x="-8"
     inkscape:window-y="-8"
     inkscape:window-maximized="1" />
  <metadata
     id="metadata7">
    <rdf:RDF>
      <cc:Work
         rdf:about="">
        <dc:format>image/svg+xml</dc:format>
        <dc:type
           rdf:resource="http://purl.org/dc/dcmitype/StillImage" />
        <dc:title></dc:title>
      </cc:Work>
    </rdf:RDF>
  </metadata>
  <g
     inkscape:label="Camada 1"
     inkscape:groupmode="layer"
     id="layer1"
     transform="translate(-135.78865,-109.15416)">
    <g
       id="g4208"
       transform="translate(-724,90)">
      <g
         id="g4190">
        <path
           id="path4059-7"
           style="fill:#006400;fill-opacity:1;stroke:#000000;stroke-width:5;stroke-linecap:butt;stroke-linejoin:miter;stroke-miterlimit:4;stroke-opacity:1;stroke-dasharray:none"
           d="m 1005.4362,389.50866 c -9.92375,22.40524 -55.93833,12.82232 -78.29034,4.14124 -25.85776,-10.04265 -60.29641,-39.62072 -52.6381,-58.10137 7.86752,-18.9855 52.83602,-15.12139 78.29042,-4.14124 21.21859,9.153 62.73222,35.31183 52.63802,58.10137 z"
           sodipodi:nodetypes="cssss" />
        <path
           id="path4059-7-4"
           style="fill:#006400;fill-opacity:1;stroke:#000000;stroke-width:5;stroke-linecap:butt;stroke-linejoin:miter;stroke-miterlimit:4;stroke-opacity:1;stroke-dasharray:none"
           d="m 1155.2754,348.91555 c 4.1814,24.14524 -39.4131,41.71484 -62.8243,46.90051 -27.083,5.999 -72.147,0.51108 -76.0346,-19.11214 -3.9935,-20.15935 35.5563,-41.90523 62.8242,-46.9005 22.7303,-4.16401 71.7815,-5.44726 76.0347,19.11213 z"
           sodipodi:nodetypes="cssss" />
        <path
           style="fill:#006400;fill-opacity:1;stroke:#000000;stroke-width:5;stroke-linecap:butt;stroke-linejoin:miter;stroke-miterlimit:4;stroke-opacity:1;stroke-dasharray:none"
           d="m 1022.7683,455.63048 0,-318.53658 -22.5366,0 0,318.53658"
           id="path4057"
           sodipodi:nodetypes="cccc" />
        <path
           id="path3630-7"
           style="fill:#ffffff;fill-opacity:1;stroke:#000000;stroke-width:5;stroke-linecap:butt;stroke-linejoin:miter;stroke-miterlimit:4;stroke-opacity:1;stroke-dasharray:none"
           d="m 995.28338,108.43988 c -2.8741,-19.743801 -10.84297,-47.010191 -11.76428,-60.007261 -0.81455,-11.49086 5.67311,-19.68382 15.66836,-24.22873 3.61424,-1.64342 7.85374,-2.54973 12.31024,-2.54973 4.4564,0 8.6959,0.90631 12.3102,2.54973 9.9952,4.54491 16.4829,12.73787 15.6683,24.22873 -0.9213,12.99707 -8.8901,40.26346 -11.7642,60.007261"
           sodipodi:nodetypes="csssssc" />
        <path
           id="path3630-7-8"
           style="fill:#ffffff;fill-opacity:1;stroke:#000000;stroke-width:5;stroke-linecap:butt;stroke-linejoin:miter;stroke-miterlimit:4;stroke-opacity:1;stroke-dasharray:none"
           d="m 966.24326,124.89601 c -12.36094,-15.66158 -32.89538,-35.290531 -40.19179,-46.085671 -6.45085,-9.5441 -4.92886,-19.88324 1.45483,-28.81687 2.30831,-3.23037 5.5267,-6.13502 9.38609,-8.36324 3.85939,-2.22822 7.98409,-3.5631 11.93582,-3.94697 10.9286,-1.06162 20.64355,2.78986 25.68356,13.14851 5.70066,11.71645 12.43261,39.31427 19.81547,57.849951"
           sodipodi:nodetypes="csssssc" />
        <path
           id="path3630-7-8-5"
           style="fill:#ffffff;fill-opacity:1;stroke:#000000;stroke-width:5;stroke-linecap:butt;stroke-linejoin:miter;stroke-miterlimit:4;stroke-opacity:1;stroke-dasharray:none"
           d="m 949.07437,187.06712 c -19.7438,2.87409 -47.01019,10.84296 -60.00726,11.76427 -11.49085,0.81455 -19.68382,-5.6731 -24.22873,-15.66834 -1.64342,-3.61426 -2.54973,-7.85379 -2.54973,-12.31023 0,-4.45643 0.90631,-8.69597 2.54973,-12.31021 4.54491,-9.99526 12.73787,-16.48291 24.22873,-15.66836 12.99707,0.9213 40.26346,8.89018 60.00726,11.76427"
           sodipodi:nodetypes="csssssc" />
        <path
           id="path3630-7-8-6"
           style="fill:#ffffff;fill-opacity:1;stroke:#000000;stroke-width:5;stroke-linecap:butt;stroke-linejoin:miter;stroke-miterlimit:4;stroke-opacity:1;stroke-dasharray:none"
           d="m 949.33127,153.68076 c -18.53567,-7.38286 -46.1335,-14.11481 -57.84994,-19.81547 -10.35865,-5.04 -14.21014,-14.75496 -13.14852,-25.68355 0.38387,-3.95174 1.71876,-8.07644 3.94698,-11.935831 2.22822,-3.85939 5.13287,-7.07778 8.36323,-9.38608 8.93364,-6.38369 19.27277,-7.90569 28.81687,-1.45484 10.79515,7.29641 30.4241,27.830851 46.08568,40.191791"
           sodipodi:nodetypes="csssssc" />
        <path
           id="path3630-7-1"
           style="fill:#ffffff;fill-opacity:1;stroke:#000000;stroke-width:5;stroke-linecap:butt;stroke-linejoin:miter;stroke-miterlimit:4;stroke-opacity:1;stroke-dasharray:none"
           d="m 965.54601,216.11082 c -15.66158,12.36093 -35.29053,32.89538 -46.08567,40.19178 -9.54409,6.45086 -19.88324,4.92886 -28.81687,-1.45481 -3.23037,-2.30832 -6.13502,-5.52672 -8.36324,-9.38611 -2.22822,-3.85938 -3.5631,-7.98409 -3.94697,-11.9358 -1.06161,-10.92861 2.78986,-20.64356 13.14851,-25.68357 11.71645,-5.70067 39.31427,-12.43261 57.84995,-19.81548"
           sodipodi:nodetypes="csssssc" />
        <path
           id="path3630-7-9"
           style="fill:#ffffff;fill-opacity:1;stroke:#000000;stroke-width:5;stroke-linecap:butt;stroke-linejoin:miter;stroke-miterlimit:4;stroke-opacity:1;stroke-dasharray:none"
           d="m 994.33069,233.02714 c -7.38286,18.53566 -14.1148,46.1335 -19.81547,57.84993 -5.03999,10.35866 -14.75496,14.21014 -25.68354,13.14854 -3.95175,-0.38388 -8.07645,-1.71877 -11.93584,-3.94699 -3.85938,-2.22822 -7.07778,-5.13288 -9.38607,-8.36323 -6.38369,-8.93364 -7.90569,-19.27277 -1.45485,-28.81687 7.29641,-10.79515 27.83086,-30.4241 40.19179,-46.08569"
           sodipodi:nodetypes="csssssc" />
        <path
           id="path3630-7-7"
           style="fill:#ffffff;fill-opacity:1;stroke:#000000;stroke-width:5;stroke-linecap:butt;stroke-linejoin:miter;stroke-miterlimit:4;stroke-opacity:1;stroke-dasharray:none"
           d="m 1027.7154,233.28451 c 2.8741,19.74378 10.843,47.01018 11.7643,60.00724 0.8146,11.49086 -5.6731,19.68382 -15.6683,24.22874 -3.6143,1.64343 -7.8538,2.54973 -12.3103,2.54973 -4.4564,-1e-5 -8.6959,-0.90632 -12.31015,-2.54974 -9.99526,-4.54491 -16.48292,-12.73786 -15.66838,-24.22871 0.92131,-12.99708 8.89019,-40.26348 11.76427,-60.00728"
           sodipodi:nodetypes="csssssc" />
        <path
           id="path3630-7-5"
           style="fill:#ffffff;fill-opacity:1;stroke:#000000;stroke-width:5;stroke-linecap:butt;stroke-linejoin:miter;stroke-miterlimit:4;stroke-opacity:1;stroke-dasharray:none"
           d="m 1056.7552,216.81903 c 12.3609,15.66157 32.8954,35.29052 40.1918,46.08566 6.4508,9.54409 4.9288,19.88324 -1.4548,28.81687 -2.3084,3.23038 -5.5268,6.13503 -9.3862,8.36325 -3.8593,2.2282 -7.9841,3.56309 -11.9358,3.94695 -10.9286,1.06162 -20.6435,-2.78985 -25.6835,-13.14849 -5.7007,-11.71645 -12.4326,-39.31429 -19.8155,-57.84996"
           sodipodi:nodetypes="csssssc" />
        <path
           id="path3630-7-3"
           style="fill:#ffffff;fill-opacity:1;stroke:#000000;stroke-width:5;stroke-linecap:butt;stroke-linejoin:miter;stroke-miterlimit:4;stroke-opacity:1;stroke-dasharray:none"
           d="m 1073.6742,188.03894 c 18.5356,7.38286 46.1335,14.1148 57.8499,19.81547 10.3587,5.03999 14.2101,14.75496 13.1485,25.68354 -0.3838,3.95175 -1.7187,8.07645 -3.9469,11.93584 -2.2283,3.85937 -5.1329,7.07778 -8.3633,9.38607 -8.9336,6.38369 -19.2727,7.90569 -28.8169,1.45486 -10.7951,-7.29642 -30.424,-27.83088 -46.0856,-40.1918"
           sodipodi:nodetypes="csssssc" />
        <path
           id="path3630-7-2"
           style="fill:#ffffff;fill-opacity:1;stroke:#000000;stroke-width:5;stroke-linecap:butt;stroke-linejoin:miter;stroke-miterlimit:4;stroke-opacity:1;stroke-dasharray:none"
           d="m 1073.9256,154.66814 c 19.7438,-2.87408 47.0102,-10.84297 60.0073,-11.76426 11.4908,-0.81457 19.6838,5.6731 24.2287,15.66833 1.6434,3.61425 2.5497,7.85379 2.5497,12.31023 0,4.45642 -0.9063,8.69598 -2.5497,12.31019 -4.5449,9.99526 -12.7379,16.48291 -24.2287,15.66838 -12.9971,-0.92131 -40.2635,-8.8902 -60.0073,-11.76427"
           sodipodi:nodetypes="csssssc" />
        <path
           id="path3630-7-34"
           style="fill:#ffffff;fill-opacity:1;stroke:#000000;stroke-width:5;stroke-linecap:butt;stroke-linejoin:miter;stroke-miterlimit:4;stroke-opacity:1;stroke-dasharray:none"
           d="m 1028.6708,108.6994 c 7.3828,-18.535641 14.1148,-46.133481 19.8155,-57.849911 5.0399,-10.35866 14.7549,-14.21013 25.6835,-13.14854 3.9518,0.38388 8.0765,1.71876 11.9358,3.94698 3.8594,2.22821 7.0778,5.13289 9.3861,8.36324 6.3837,8.93363 7.9057,19.27275 1.4549,28.81687 -7.2964,10.79513 -27.8309,30.424081 -40.1918,46.085691"
           sodipodi:nodetypes="csssssc" />
        <path
           id="path3630-7-38"
           style="fill:#ffffff;fill-opacity:1;stroke:#000000;stroke-width:5;stroke-linecap:butt;stroke-linejoin:miter;stroke-miterlimit:4;stroke-opacity:1;stroke-dasharray:none"
           d="m 1057.4749,125.62534 c 15.6615,-12.36091 35.2905,-32.895371 46.0856,-40.191761 9.5441,-6.45087 19.8833,-4.92886 28.8169,1.4548 3.2304,2.30832 6.135,5.52672 8.3633,9.38611 2.2282,3.859371 3.563,7.984101 3.9469,11.935811 1.0616,10.9286 -2.7898,20.64354 -13.1485,25.68357 -11.7164,5.70065 -39.3143,12.43259 -57.8499,19.81548"
           sodipodi:nodetypes="csssssc" />
        <path
           sodipodi:type="arc"
           style="fill:#ffd800;fill-opacity:1;stroke:#020000;stroke-width:6.00005436;stroke-miterlimit:4;stroke-opacity:1;stroke-dasharray:none;stroke-dashoffset:0"
           id="path4029"
           sodipodi:cx="927.5"
           sodipodi:cy="220.36218"
           sodipodi:rx="79.5"
           sodipodi:ry="74"
           d="m 1007,220.36218 c 0,40.86907 -35.59336,74 -79.5,74 -43.90664,0 -79.5,-33.13093 -79.5,-74 0,-40.86907 35.59336,-74 79.5,-74 43.90664,0 79.5,33.13093 79.5,74 z"
           transform="matrix(0.80398347,0,0,0.86373903,265.80533,-19.473228)" />
      </g>
    </g>
  </g>
</svg>
